<svg width="1269" height="188" viewBox="0 0 1269 188" fill="none" xmlns="http://www.w3.org/2000/svg">
<path fill-rule="evenodd" clip-rule="evenodd" d="M42.4609 0.152172C70.409 0.0786146 117.79 -3.83713 124.744 33.161C126.712 43.2089 124.532 53.627 118.699 62.0418C110.172 74.2173 97.5749 79.3474 83.5049 81.703L80.0908 82.0633C83.1493 83.839 87.5782 86.2277 90.21 88.3582C97.4137 94.2667 104.952 103.546 111.16 112.746C135.965 149.499 175.328 198.392 225.768 175.306C227.211 174.645 228.477 172.684 230.083 173.35C229.122 176.188 227.853 176.963 225.161 178.267C203.543 188.745 182.397 190.421 159.875 182.495C120.234 168.543 100.788 131.149 78.5967 98.6658L72.1338 90.659C68.2513 86.8304 65.7322 85.3464 60.6699 83.576C56.4669 83.9653 46.0737 83.7781 41.5654 83.658C40.5642 89.1707 39.6004 137.865 43.7441 144.897C46.5688 149.69 54.1081 150.541 59.3564 151.565L2.60742 151.513C5.47317 150.944 8.41043 150.406 11.1592 149.39C14.0961 148.305 16.9742 146.09 18.1562 143.097C21.2612 135.233 20.7927 35.0515 19.877 20.078C19.6512 16.3946 19.3693 10.9275 17.5693 7.65217C14.4327 1.94658 5.66315 1.61761 0 0.302563L42.4609 0.152172ZM102.169 51.5125C110.074 10.966 77.9629 -1.29017 44.0127 4.70979C39.955 5.42798 41.0875 24.4235 40.9766 27.4774C40.3548 44.5335 41.8752 62.7962 40.7637 79.7069C45.2644 80.4255 62.6914 80.3455 67.5762 79.7918C74.2194 78.9014 76.7618 78.1257 83.1172 76.2196C92.6369 70.3711 99.9557 62.8657 102.169 51.5125Z" fill="#1A1208"/>
<path d="M1221.74 49.449C1234.7 48.1887 1246.16 52.3892 1255.97 61.0028C1264.94 71.8893 1266.93 79.0082 1266.83 93.158C1263.8 93.1355 1257.92 93.2744 1255.13 93.0096C1240.88 93.1746 1225.77 93.8978 1212.23 99.1258C1209.67 100.113 1202.9 104.064 1199.79 105.638L1199.54 104.811C1206.14 94.8399 1230.51 90.2112 1241.96 89.6239C1243.38 89.3718 1244.69 89.0502 1246.09 88.7254C1252.04 84.0975 1248.2 73.3599 1246.13 67.4949C1229.11 40.1015 1200.59 50.8044 1194.26 79.3973C1190.82 94.8953 1194.18 113.399 1203.08 126.761C1203.34 127.151 1203.61 127.535 1203.88 127.913C1218.28 145.315 1236.59 150.954 1257.44 140.422C1261.02 137.688 1264.58 134.92 1268.12 132.12C1266.29 136.451 1261.94 140.346 1258.55 143.489C1237.02 159.685 1208.32 157.47 1189.43 138.318C1163.21 105.492 1176.26 53.8737 1221.74 49.449Z" fill="#1A1208"/>
<path d="M1097.38 62.951C1111.11 43.8756 1140.71 47.7277 1158.62 58.2108C1158.63 66.3997 1158.54 74.796 1158.68 82.9647C1155.41 71.3797 1150.42 61.2187 1139.35 55.3778C1124.37 47.4731 1106.63 51.5851 1105.52 70.7733C1109.89 91.3168 1144.01 91.3962 1160.43 108.897L1160.81 109.314C1163.56 113.642 1164.23 115.23 1165.84 120.148C1165.97 125.625 1166.09 129.83 1164.48 135.139C1163.18 137.492 1161.7 140.446 1160.12 142.559C1154.62 148.015 1149.74 150.658 1142.26 152.989C1121.5 156.555 1110.47 152.515 1092.32 144.04L1092.42 117.049C1097.39 142.256 1113.49 154.575 1139.11 150.635C1150.83 146.105 1154.07 137.996 1151.24 126.229C1150.06 124.397 1148.82 122.926 1147.47 121.386L1146.09 119.806C1135.96 112.023 1120.51 108.756 1109.16 102.216C1093.22 93.0289 1087.76 79.4895 1097.38 62.951Z" fill="#1A1208"/>
<path d="M882.916 51.8563C893.573 51.6042 904.238 51.5408 914.903 51.6668C915.256 70.1648 915.406 88.6661 915.354 107.168C915.361 114.326 915.428 121.581 915.368 128.731C915.301 136.826 915.729 143.057 925.081 145.135L925.351 145.785C918.256 148.65 906.713 150.948 897.751 154.182C897.796 147.704 897.975 140.965 897.48 134.523C893.895 138.927 890.513 142.919 885.578 145.895C875.933 152.379 864.856 155.201 853.336 152.998C849.813 152.357 846.416 151.174 843.261 149.492L842.633 149.149C839.378 147.158 838.362 146.505 836.109 144.316L835.059 143.276C829.944 136.633 827.153 129.702 827.258 121.295C825.435 103.978 829.261 75.3597 825.166 59.4002C819.939 53.3073 818.266 54.0759 810.519 52.0633L843.855 51.9129C843.811 68.4714 841.943 116.361 847.021 131.239L847.269 131.923C849.323 135.735 850.988 138.556 854.476 141.3C863.633 146.625 871.831 147.31 881.844 143.455C890.461 138.795 892.906 136.617 897.796 128.102C897.758 114.837 897.788 101.571 897.886 88.3065C897.916 80.203 898.336 71.9717 897.196 63.95C895.839 54.407 890.513 53.9162 882.916 51.8563Z" fill="#1A1208"/>
<path d="M153.793 62.328C173.866 43.4985 203.823 42.2618 223.252 62.6893C230.334 73.6364 231.846 78.4834 231.671 91.826C205.38 91.751 184.769 90.2517 160.339 100.824C170.84 91.1759 187.609 89.8232 201.337 88.2186C214.167 86.7197 214.544 86.7922 212.574 73.6658C212.441 72.9929 212.283 72.3246 212.102 71.6629C204.622 44.4924 173.892 43.9055 160.282 68.9832C154.477 85.0198 155.199 102.696 162.293 118.207C163.643 121.105 165.033 123.611 166.88 126.212C169.171 129.071 171.618 132.335 174.314 134.756C190.244 147.555 207.159 148.703 224.736 138.257C228.327 135.165 231.839 131.981 235.265 128.707C232.993 133.473 229.671 136.977 225.994 140.762C207.72 156.933 176.787 159.041 158.279 142.575L157.845 142.182C155.284 140.326 153.61 138.271 151.486 135.939C133.21 113.702 135.584 83.7952 153.793 62.328Z" fill="#1A1208"/>
<path d="M271.017 54.0535C283.991 48.3582 292.276 47.299 306.168 48.3485C313.367 49.6343 318.579 50.5648 325.382 53.6766C330.682 56.38 332.65 57.6502 337.453 61.0828C334.727 65.3288 330.913 70.9113 328.642 75.2742C324.961 68.4296 323.129 65.4238 317.651 59.5897C311.703 55.0661 308.581 53.1852 301.479 50.9324C290.293 50.0802 284.849 50.7682 275.114 56.5828C236.459 93.9922 272.995 165.793 341.738 136.777C352.61 131.206 358.57 127.816 368.813 120.97C374.505 116.668 380.239 112.423 386.016 108.235C387.078 106.802 393.149 102.193 394.89 100.811C396.388 99.377 398.24 97.136 400.135 96.9305C399.183 99.6535 396.781 101.312 394.542 103.319L386.826 110.733C381.59 115.477 376.04 120.684 370.639 125.163C365.653 128.981 354.282 137.548 348.63 140.011C329.702 151.881 306.213 157.078 284.262 151.98C255.251 145.244 237.303 116.495 244.912 87.5428C249.018 71.9213 257.27 62.1479 271.017 54.0535Z" fill="#1A1208"/>
<path d="M586.793 60.4647C598.683 47.7281 614.723 46.8928 630.738 50.6805L632.288 51.0614L633.256 51.324C638.082 52.6815 642.709 54.6551 647.033 57.1961L647.025 81.2948C643.133 68.7616 638.273 59.768 626.086 53.3172L625.351 52.9344C604.837 46.8903 583.563 61.4152 598.463 79.6453L599.175 80.2703C612.97 92.2425 636.533 93.5049 648.398 107.56C663.016 124.887 651.518 148.224 630.301 152.493C621.421 154.72 614.079 153.912 605.192 152.953C595.904 150.853 589.7 147.877 581.072 143.995C580.481 136.093 580.799 125.278 580.809 117.16C585.593 134.533 590.739 143.441 608.27 150.355C614.375 151.383 617.896 151.723 624.099 151.224C639.323 147.216 647.438 131.952 635.671 120.522C618.983 104.312 574.753 105.851 581.756 70.9442C582.606 66.7086 584.463 63.9088 586.793 60.4647Z" fill="#1A1208"/>
<path d="M366.124 56.285C377.805 48.9159 392.975 46.4528 406.521 48.7391C454.404 55.6394 468.578 113.581 430.938 143.187C428.27 145.286 421.247 149.098 418.029 149.967C406.546 154.223 397.364 154.481 385.382 152.773C373.597 149.458 368.6 147.654 358.753 139.914C362.387 137.48 366.111 134.787 369.713 132.27C377.173 140.76 381.756 145.59 392.476 149.515C400.546 150.879 403.118 150.799 411.095 148.957C448.939 131.427 441.595 60.7889 397.419 50.6209C385.571 51.1618 380.194 52.1679 371.055 60.2967C367.845 64.0371 365.606 66.55 363.364 70.9686L360.383 79.1229C356.867 93.959 357.875 105.278 363.071 119.281C358.702 122.262 353.791 125.147 349.254 127.926C338.715 108.54 339.017 89.8466 350.414 70.9705L354.697 65.8074L355.298 65.1199C358.326 61.7358 361.755 59.1221 365.57 56.6395L366.124 56.285Z" fill="#1A1208"/>
<path fill-rule="evenodd" clip-rule="evenodd" d="M939.631 63.1326C956.048 48.7135 985.5 44.7528 1004.03 57.2948C1006.09 59.3465 1008.32 61.3823 1009.85 63.8406C1020.46 82.4648 1013.16 117.023 1015.58 138.366C1016.12 143.156 1017.29 145.687 1021.47 148.305C1023.64 148.392 1025.76 148.466 1027.93 148.632L1027.89 149.651C1024.16 152.46 1014.17 152.945 1009.61 152.338C999.136 150.944 998.686 140.128 997.291 132.438C991.216 139.378 988.808 142.411 980.911 147.483C957.256 163.086 920.416 148.068 933.983 117.077C938.874 105.9 955.419 99.7938 966.331 96.3602C974.716 93.4683 989.011 91.353 997.291 87.9022C997.823 87.6789 998.064 83.8164 998.184 82.7244C997.704 79.5654 997.388 75.6488 997.051 72.411C996.488 69.5873 995.04 65.9104 994.043 63.116C983.22 47.5982 965.851 49.968 953.806 62.6483C947.243 69.559 943.643 75.5953 939.698 84.1346L939.631 63.1326ZM997.726 90.5155C988.448 92.6962 979.283 95.3634 970.283 98.5067C967.231 100.048 963.57 101.755 960.9 103.828C941.288 119.057 944.866 148.92 973.966 145.745C985.531 141.556 988.149 138.968 996.474 130.035C998.754 125.151 997.861 111.222 998.086 104.64C997.786 100.268 997.816 94.9655 997.726 90.5155Z" fill="#1A1208"/>
<path d="M688.801 23.8944C688.756 32.4066 689.28 42.0744 688.673 50.4276C694.725 52.228 711.166 49.5326 715.216 51.7733L715.426 53.0028C711.361 56.3994 692.911 52.9699 688.644 55.3524C690.016 77.2343 688.073 100.584 688.846 122.624C689.213 133.198 689.378 148.612 704.506 146.548C705.893 146.35 707.273 146.117 708.646 145.849C712.673 142.934 716.356 140.215 720.256 137.097C716.438 141.727 713.258 145.606 708.354 149.253C694.996 157.285 675.953 154.359 672.766 136.838C671.041 127.317 671.776 114.65 671.791 104.707L671.753 54.619L656.139 54.1912C673.876 47.2746 679.891 40.4753 688.801 23.8944Z" fill="#1A1208"/>
<path d="M749.813 49.6053C749.821 55.0628 749.663 60.8312 750.323 66.2235C753.361 62.9655 754.704 61.5908 758.206 58.8924C769.778 49.4155 785.168 47.6384 799.065 52.5858C803.715 55.0351 806.821 56.934 810.421 60.8905C807.751 67.363 804.203 75.3049 801.863 81.7655C799.718 72.791 798.015 68.6337 791.355 62.0418C782.078 54.4901 771.541 55.1921 761.386 60.2655C757.508 63.1094 756.151 64.3168 752.791 67.7811C752.139 68.8711 751.561 69.9561 751.216 71.1864C749.183 78.4803 749.461 140.07 752.708 144.978C755.986 149.926 761.491 150.409 766.809 151.612C750.316 151.455 733.816 151.475 717.323 151.673C720.646 150.734 724.464 150.429 727.434 148.561C729.961 146.974 730.996 144.955 731.671 142.141C733.816 133.169 734.491 69.2676 730.381 62.9608C727.748 58.9173 723.593 58.5311 719.229 57.6219C730.831 55.5777 738.639 53.3592 749.813 49.6053Z" fill="#1A1208"/>
<path d="M508.632 52.3221C527.949 45.5285 552.262 48.4421 559.306 70.8192C564.544 87.4611 561.438 106.846 562.127 124.037C562.748 139.98 558.946 146.733 576.395 151.635C560.438 151.488 544.478 151.494 528.521 151.652C534.004 150.416 539.136 149.971 542.371 144.72C546.228 138.458 544.943 84.5296 542.651 76.1268C540.794 69.3182 537.143 63.3377 530.891 59.7811C524.426 56.1044 517.611 56.0433 510.394 56.2684C501.054 60.1437 496.347 62.3805 489.936 70.6121C486.624 77.7817 489.618 124.271 488.963 135.32C488.264 147.108 494.496 149.245 504.1 151.629C487.855 151.481 471.609 151.453 455.363 151.543C457.649 151.009 462.219 150.009 464.25 149.075C466.938 147.83 468.976 145.509 469.863 142.682C472.233 135.13 470.703 83.5803 470.791 72.5399C470.805 70.7335 469.453 64.2679 468.316 62.4559C466.287 59.2211 462.28 58.8172 458.857 57.7879C460.612 56.6964 484.168 50.5258 488.041 49.3143C488.088 53.2928 487.883 64.0537 489.149 67.3192C493.322 60.6223 501.33 55.1623 508.632 52.3221Z" fill="#1A1208"/>
<path d="M1042.11 92.701C1053.43 92.1106 1068.35 92.4514 1079.63 92.8895C1079.59 95.3253 1079.58 96.5315 1079.2 98.9178C1077.06 100.345 1075.68 99.8066 1072.68 99.8133C1067.18 99.8321 1038.26 100.323 1034.64 99.2664C1034.22 96.6408 1034.04 96.2314 1034.51 93.6785C1036.84 92.2203 1038.95 92.7468 1042.11 92.701Z" fill="#1A1208"/>
</svg>
