<svg width="976" height="121" viewBox="0 0 976 121" fill="none" xmlns="http://www.w3.org/2000/svg">
<path fill-rule="evenodd" clip-rule="evenodd" d="M115.5 119C115.5 119 145.055 123.335 161.5 117.5C177 112 176 79.5 188 51C195.031 34.3025 207.5 23 207.5 23C207.5 23 175.331 37.669 153.5 59.5C131.669 81.3309 115.5 119 115.5 119Z" fill="#5A9E2F"/>
<path d="M136.717 42.7168C164.331 15.1026 213.217 19.2168 213.217 19.2168C213.217 19.2168 174.331 36.669 152.5 58.5C130.669 80.331 113.217 119.217 113.217 119.217C113.217 119.217 109.103 70.331 136.717 42.7168Z" fill="#5A9E2F"/>
<path fill-rule="evenodd" clip-rule="evenodd" d="M97.717 119C97.717 119 68.1618 123.335 51.717 117.5C36.217 112 37.217 79.5 25.217 51C18.1865 34.3025 5.71702 23 5.71702 23C5.71702 23 37.8859 37.669 59.7169 59.5C81.5478 81.3309 97.717 119 97.717 119Z" fill="#5A9E2F"/>
<path d="M76.5 42.7168C48.8857 15.1026 7.62939e-06 19.2168 7.62939e-06 19.2168C7.62939e-06 19.2168 38.8859 36.669 60.7168 58.5C82.5478 80.331 100 119.217 100 119.217C100 119.217 104.114 70.331 76.5 42.7168Z" fill="#5A9E2F"/>
<path d="M107.797 0C108.222 0.292669 108.665 2.20505 108.781 2.75445C110.855 12.5605 116.391 16.3639 126.064 17.981C113.604 20.2505 110.445 27.5487 107.806 38.9599C107.5 38.2208 107.173 36.3783 106.97 35.5334C104.319 24.4919 100.134 20.1841 89.0617 18.0396C100.052 16.4872 106.323 11.3283 107.797 0Z" fill="#5A9E2F"/>
<path d="M225.203 114.976C224.246 114.976 223.473 114.864 222.884 114.641C222.295 114.492 222 114.195 222 113.748C222 112.856 223.215 112.186 225.645 111.74C228.443 111.219 230.505 110.364 231.83 109.173C233.155 107.983 233.818 106.049 233.818 103.371V53.1594C233.818 50.4814 233.266 48.5845 232.161 47.4687C231.13 46.3529 229.216 45.5346 226.418 45.0139C225.166 44.7907 224.246 44.4932 223.657 44.1212C223.068 43.7493 222.773 43.303 222.773 42.7823C222.773 42.3359 223.068 42.0384 223.657 41.8896C224.246 41.6664 225.019 41.5548 225.976 41.5548C228.774 41.5548 231.13 41.592 233.045 41.6664C235.033 41.7408 236.947 41.8152 238.788 41.8896C240.703 41.8896 242.948 41.8896 245.526 41.8896C247.955 41.8896 250.496 41.8896 253.147 41.8896C255.871 41.8152 258.374 41.778 260.657 41.778C263.161 41.7036 265.259 41.6664 266.953 41.6664C268.72 41.592 269.751 41.5548 270.045 41.5548C270.413 41.5548 270.818 41.6292 271.26 41.778C271.702 41.9268 271.96 42.1871 272.033 42.5591C272.401 44.6419 272.77 46.7248 273.138 48.8077C273.506 50.8162 273.69 52.5643 273.69 54.052C273.69 54.7215 273.506 55.1678 273.138 55.391C272.843 55.6142 272.512 55.7258 272.144 55.7258C271.776 55.7258 271.518 55.6514 271.371 55.5026C271.223 55.2794 271.076 54.9819 270.929 54.6099C270.561 53.3453 270.193 52.1551 269.824 51.0393C269.456 49.8491 269.014 48.9936 268.499 48.4729C267.468 47.2827 266.327 46.5016 265.075 46.1297C263.823 45.6834 262.498 45.4602 261.099 45.4602H246.63C246.041 45.4602 245.231 45.795 244.2 46.4645C243.169 47.1339 242.654 47.9894 242.654 49.0308V72.6862C242.654 73.3557 242.838 73.9508 243.206 74.4715C243.648 74.9178 244.127 75.141 244.642 75.141H255.576C257.712 75.141 259.184 74.7691 259.994 74.0252C260.804 73.2069 261.467 71.7564 261.982 69.6735C262.424 68.037 263.087 67.2187 263.971 67.2187C264.265 67.2187 264.56 67.3675 264.854 67.665C265.222 67.9626 265.406 68.4089 265.406 69.004C265.406 69.3016 265.37 69.971 265.296 71.0125C265.296 72.0539 265.259 73.1325 265.185 74.2484C265.112 75.3642 265.075 76.2196 265.075 76.8147C265.075 77.5586 265.075 78.5629 265.075 79.8275C265.149 81.0177 265.185 82.1707 265.185 83.2865C265.259 84.4023 265.296 85.109 265.296 85.4065C265.296 85.9273 265.222 86.3736 265.075 86.7455C265.001 87.1175 264.744 87.3034 264.302 87.3034C263.197 87.3034 262.351 86.1132 261.762 83.7328C261.32 82.0219 260.731 80.7573 259.994 79.939C259.258 79.1208 258.154 78.7116 256.681 78.7116H246.409C245.157 78.7116 244.2 78.8976 243.538 79.2695C242.948 79.5671 242.654 80.3482 242.654 81.6128V103.036C242.654 105.863 243.243 107.835 244.421 108.95C245.599 109.992 247.44 110.512 249.944 110.512H258.117C260.473 110.512 262.424 110.401 263.971 110.178C265.59 109.88 266.989 109.359 268.168 108.616C269.346 107.797 270.377 106.719 271.26 105.38C272.217 104.041 273.285 102.255 274.463 100.024C274.684 99.5775 274.942 99.2055 275.236 98.908C275.531 98.6104 275.862 98.4988 276.23 98.5732C276.599 98.6476 276.893 98.8336 277.114 99.1311C277.335 99.3543 277.445 99.689 277.445 100.135C277.445 100.805 277.261 101.995 276.893 103.706C276.525 105.343 276.046 107.053 275.457 108.839C274.942 110.624 274.463 112.037 274.021 113.079C273.8 113.6 273.58 114.046 273.359 114.418C273.211 114.79 272.917 114.976 272.475 114.976C268.941 114.976 265.664 114.939 262.645 114.864C259.626 114.79 256.755 114.715 254.03 114.641C251.306 114.567 248.618 114.492 245.967 114.418C243.39 114.343 240.703 114.306 237.905 114.306C236.285 114.306 234.886 114.343 233.708 114.418C232.529 114.567 231.315 114.678 230.063 114.753C228.811 114.901 227.191 114.976 225.203 114.976Z" fill="#5A9E2F"/>
<path d="M315.379 115.757C314.79 115.757 314.385 115.496 314.164 114.976C313.87 114.157 313.502 113.079 313.06 111.74C312.618 110.327 312.213 109.136 311.845 108.169L291.633 53.3825C290.896 51.2997 289.902 49.5516 288.651 48.1382C287.399 46.7248 285.816 45.7578 283.901 45.2371C282.723 44.8651 281.803 44.4932 281.14 44.1212C280.551 43.7493 280.257 43.303 280.257 42.7823C280.257 42.3359 280.551 42.0384 281.14 41.8896C281.729 41.6664 282.502 41.5548 283.46 41.5548C284.638 41.5548 285.926 41.592 287.325 41.6664C288.798 41.7408 290.344 41.8152 291.964 41.8896C293.584 41.8896 295.241 41.8896 296.934 41.8896C298.407 41.8896 299.843 41.8896 301.242 41.8896C302.714 41.8152 304.04 41.778 305.218 41.778C306.47 41.7036 307.464 41.6664 308.2 41.6664C309.157 41.6664 309.93 41.778 310.52 42.0012C311.109 42.15 311.403 42.4475 311.403 42.8938C311.403 43.4146 311.109 43.8981 310.52 44.3444C309.93 44.7163 309.01 44.9767 307.758 45.1255C305.697 45.3486 303.966 45.8322 302.567 46.576C301.242 47.2455 300.579 48.2126 300.579 49.4772C300.579 50.7418 300.726 51.8576 301.021 52.8246C301.389 53.7173 301.647 54.424 301.794 54.9447L317.699 97.3458C317.846 97.6434 318.03 97.8293 318.251 97.9037C318.472 97.9781 318.693 97.7549 318.914 97.2342L334.045 57.0647C335.518 53.1222 335.591 50.2582 334.266 48.4729C333.014 46.6132 331.21 45.5346 328.854 45.2371C327.75 45.0883 326.866 44.8279 326.203 44.456C325.541 44.0097 325.209 43.5261 325.209 43.0054C325.209 42.5591 325.504 42.2615 326.093 42.1128C326.682 41.8896 327.455 41.778 328.412 41.778C329.369 41.778 330.437 41.778 331.615 41.778C332.793 41.778 334.008 41.8152 335.26 41.8896C336.585 41.8896 337.948 41.8896 339.347 41.8896C341.482 41.8896 343.765 41.8524 346.195 41.778C348.624 41.6292 350.539 41.5548 351.938 41.5548C352.895 41.5548 353.668 41.6664 354.257 41.8896C354.846 42.0384 355.141 42.3359 355.141 42.7823C355.141 43.303 354.846 43.7493 354.257 44.1212C353.668 44.4188 352.748 44.7163 351.496 45.0139C348.772 45.609 346.489 46.8736 344.648 48.8077C342.807 50.7418 341.482 52.713 340.672 54.7215L319.908 105.603C319.76 105.975 319.466 106.756 319.024 107.946C318.656 109.062 318.251 110.289 317.809 111.628C317.367 112.967 316.926 114.083 316.484 114.976C316.41 115.199 316.263 115.385 316.042 115.534C315.821 115.682 315.6 115.757 315.379 115.757Z" fill="#5A9E2F"/>
<path d="M392.221 115.98C387.361 115.98 382.722 115.125 378.304 113.414C373.886 111.628 369.984 109.136 366.596 105.938C363.209 102.665 360.522 98.7964 358.534 94.3331C356.546 89.7954 355.552 84.7742 355.552 79.2695C355.552 74.2112 356.362 69.3759 357.981 64.7639C359.601 60.0775 361.994 55.9117 365.161 52.2667C368.327 48.6217 372.266 45.7206 376.979 43.5633C381.691 41.4061 387.103 40.3275 393.215 40.3275C398.074 40.3275 402.713 41.2201 407.131 43.0054C411.549 44.7163 415.452 47.2083 418.839 50.4814C422.226 53.6801 424.913 57.5483 426.902 62.0859C428.89 66.5492 429.884 71.5332 429.884 77.0379C429.884 82.0219 429.074 86.8571 427.454 91.5436C425.834 96.23 423.441 100.396 420.275 104.041C417.108 107.686 413.169 110.587 408.457 112.744C403.744 114.901 398.332 115.98 392.221 115.98ZM393.877 111.517C399.547 111.517 404.26 110.327 408.015 107.946C411.77 105.491 414.568 102.107 416.409 97.7921C418.323 93.4033 419.281 88.3077 419.281 82.5054C419.281 77.3726 418.692 72.5374 417.513 67.9998C416.335 63.4621 414.568 59.4823 412.212 56.0605C409.929 52.5643 407.058 49.8491 403.597 47.915C400.136 45.9809 396.086 45.0139 391.447 45.0139C385.925 45.0139 381.286 46.2041 377.531 48.5845C373.776 50.9649 370.941 54.3124 369.026 58.6269C367.112 62.867 366.155 67.8882 366.155 73.6904C366.155 78.8976 366.707 83.77 367.811 88.3077C368.99 92.8453 370.72 96.8623 373.003 100.359C375.359 103.855 378.267 106.607 381.728 108.616C385.189 110.55 389.238 111.517 393.877 111.517Z" fill="#5A9E2F"/>
<path d="M440.895 114.976C439.938 114.976 439.165 114.827 438.575 114.529C438.06 114.306 437.802 114.009 437.802 113.637C437.802 112.967 438.134 112.521 438.796 112.298C439.533 112 440.011 111.814 440.232 111.74C443.104 111.145 445.313 110.289 446.859 109.173C448.405 107.983 449.179 106.161 449.179 103.706V51.932C449.179 50.1467 448.994 48.8449 448.626 48.0266C448.258 47.1339 447.595 46.5016 446.638 46.1297C445.681 45.6834 444.282 45.3114 442.441 45.0139C440.011 44.5676 438.796 43.8237 438.796 42.7823C438.796 42.3359 439.091 42.0384 439.68 41.8896C440.269 41.6664 441.042 41.5548 441.999 41.5548C443.987 41.5548 445.571 41.592 446.749 41.6664C448 41.7408 449.179 41.8152 450.283 41.8896C451.388 41.8896 452.75 41.8896 454.37 41.8896C456.21 41.8896 457.794 41.8896 459.119 41.8896C460.444 41.8152 461.807 41.7408 463.206 41.6664C464.605 41.592 466.298 41.5548 468.286 41.5548C469.243 41.5548 470.017 41.6664 470.606 41.8896C471.195 42.0384 471.489 42.3359 471.489 42.7823C471.489 43.303 471.195 43.7493 470.606 44.1212C470.017 44.4932 469.096 44.7907 467.844 45.0139C465.12 45.5346 462.801 46.1669 460.886 46.9108C458.972 47.5803 458.014 48.9936 458.014 51.1509V103.706C458.014 106.012 458.53 107.723 459.561 108.839C460.592 109.955 462.911 110.512 466.519 110.512H480.215C482.203 110.512 483.933 110.215 485.406 109.62C486.952 108.95 488.093 108.281 488.83 107.611C490.302 106.347 491.37 105.231 492.033 104.264C492.769 103.222 493.616 101.698 494.573 99.689C494.72 99.2427 495.015 98.5732 495.457 97.6806C495.972 96.7879 496.487 96.3416 497.003 96.3416C497.445 96.3416 497.776 96.5647 497.997 97.0111C498.218 97.4574 498.328 97.9037 498.328 98.3501C498.328 98.4244 498.291 98.536 498.218 98.6848C498.218 98.7592 498.218 98.8336 498.218 98.908C497.702 100.842 497.224 102.59 496.782 104.152C496.414 105.714 496.082 107.202 495.788 108.616C495.567 110.029 495.383 111.517 495.236 113.079C495.162 113.6 495.015 114.046 494.794 114.418C494.647 114.79 494.278 114.976 493.689 114.976C490.008 114.976 486.473 114.939 483.086 114.864C479.699 114.79 476.423 114.715 473.256 114.641C470.164 114.641 467.182 114.604 464.31 114.529C461.438 114.455 458.604 114.418 455.805 114.418C453.965 114.418 451.866 114.455 449.51 114.529C447.227 114.604 445.202 114.678 443.435 114.753C441.742 114.901 440.895 114.976 440.895 114.976Z" fill="#5A9E2F"/>
<path d="M540.408 115.98C533.854 115.98 528.369 114.827 523.951 112.521C519.533 110.141 516.219 106.83 514.01 102.59C511.801 98.2757 510.697 93.2917 510.697 87.6382V53.3825C510.697 50.7046 510.145 48.7705 509.04 47.5803C508.009 46.3157 506.868 45.5346 505.616 45.2371C503.186 44.5676 501.971 43.7493 501.971 42.7823C501.971 42.3359 502.266 42.0384 502.855 41.8896C503.444 41.6664 504.217 41.5548 505.174 41.5548C506.868 41.5548 508.525 41.6292 510.145 41.778C511.838 41.8524 513.716 41.8896 515.777 41.8896C517.471 41.8896 519.054 41.8524 520.527 41.778C522.073 41.7036 523.435 41.6664 524.613 41.6664C525.571 41.6664 526.344 41.778 526.933 42.0012C527.522 42.15 527.816 42.4475 527.816 42.8938C527.816 43.4146 527.522 43.8237 526.933 44.1212C526.344 44.4188 525.423 44.7535 524.172 45.1255C523.288 45.423 522.294 46.2785 521.189 47.6919C520.085 49.1052 519.533 50.9277 519.533 53.1594V84.5139C519.533 90.4649 520.527 95.3745 522.515 99.2427C524.503 103.036 527.227 105.863 530.688 107.723C534.222 109.508 538.235 110.401 542.727 110.401C550.311 110.401 555.87 107.76 559.405 102.479C562.939 97.1227 564.706 90.093 564.706 81.3896C564.706 79.7531 564.669 77.5958 564.596 74.9178C564.596 72.2399 564.559 69.3759 564.485 66.326C564.412 63.2017 564.338 60.2262 564.264 57.3995C564.264 55.4654 564.08 53.6429 563.712 51.932C563.418 50.2211 562.939 48.7705 562.276 47.5803C561.614 46.3157 560.767 45.5346 559.736 45.2371C559 45.0139 558.19 44.7163 557.306 44.3444C556.496 43.9725 556.091 43.5261 556.091 43.0054C556.091 42.5591 556.386 42.2615 556.975 42.1128C557.564 41.8896 558.337 41.778 559.294 41.778C560.988 41.778 562.387 41.8152 563.491 41.8896C564.596 41.8896 565.958 41.8896 567.578 41.8896C568.756 41.8896 569.861 41.8896 570.891 41.8896C571.922 41.8152 572.916 41.7408 573.874 41.6664C574.831 41.592 575.714 41.5548 576.524 41.5548C577.482 41.5548 578.255 41.6664 578.844 41.8896C579.433 42.0384 579.727 42.3359 579.727 42.7823C579.727 43.7493 578.512 44.4932 576.083 45.0139C574.168 45.3858 572.806 46.3157 571.996 47.8034C571.186 49.2912 570.707 51.1509 570.56 53.3825C570.192 59.7799 569.934 65.6194 569.787 70.9009C569.713 76.1824 569.603 81.3896 569.456 86.5224C569.308 92.2502 567.946 97.3458 565.369 101.809C562.792 106.272 559.331 109.769 554.987 112.298C550.716 114.753 545.856 115.98 540.408 115.98Z" fill="#5A9E2F"/>
<path d="M604.499 114.976C603.542 114.976 602.769 114.864 602.179 114.641C601.59 114.492 601.296 114.195 601.296 113.748C601.296 113.228 601.59 112.819 602.179 112.521C602.769 112.223 603.689 111.963 604.941 111.74C607.739 111.219 609.874 110.327 611.347 109.062C612.819 107.723 613.556 105.714 613.556 103.036V59.7427C613.556 56.3209 613.482 53.7173 613.335 51.932C613.188 50.0723 612.93 48.7705 612.562 48.0266C612.267 47.2827 611.825 46.8736 611.236 46.7992C610.205 46.576 609.101 46.4645 607.923 46.4645C606.818 46.3901 605.309 46.3529 603.394 46.3529H598.203C596.436 46.3529 594.669 46.7248 592.902 47.4687C591.208 48.1382 589.956 49.2168 589.147 50.7046C588.926 51.0765 588.557 51.6344 588.042 52.3783C587.527 53.0478 586.974 53.6429 586.385 54.1636C585.796 54.6843 585.207 54.9447 584.618 54.9447C584.324 54.9447 584.103 54.7959 583.955 54.4984C583.882 54.2008 583.845 53.8661 583.845 53.4941C583.845 52.7502 584.029 52.0064 584.397 51.2625C585.428 49.1052 586.164 47.2083 586.606 45.5718C587.122 43.8609 587.527 41.8524 587.821 39.5464C587.968 38.2818 588.226 37.5379 588.594 37.3147C589.036 37.0916 589.404 36.98 589.699 36.98C589.993 36.98 590.435 37.4263 591.024 38.319C591.687 39.2116 592.165 39.9555 592.46 40.5506C592.902 41.2945 593.896 41.8524 595.442 42.2243C597.062 42.5963 598.645 42.7823 600.191 42.7823H639.069C641.647 42.7823 643.745 42.6335 645.365 42.3359C646.985 42.0384 648.384 41.6292 649.562 41.1085C650.446 40.6622 651.145 40.1787 651.661 39.658C652.25 39.1372 652.986 38.8769 653.87 38.8769C654.09 38.8769 654.275 39.1744 654.422 39.7695C654.569 40.2903 654.643 40.8482 654.643 41.4433C654.643 41.8152 654.569 42.3359 654.422 43.0054C654.348 43.6749 654.275 44.1956 654.201 44.5676C653.98 45.9065 653.759 46.8736 653.538 47.4687C653.391 48.0638 653.28 48.5845 653.207 49.0308C653.133 49.4772 653.096 50.1839 653.096 51.1509V52.4899C653.096 53.1594 652.949 53.9404 652.655 54.8331C652.36 55.6514 651.918 56.0605 651.329 56.0605C650.814 56.0605 650.409 55.6514 650.114 54.8331C649.82 54.0148 649.525 52.899 649.231 51.4856C648.936 49.9235 648.053 48.6961 646.58 47.8034C645.107 46.8364 642.604 46.3529 639.069 46.3529H627.914C626.294 46.3529 625.079 46.576 624.269 47.0224C623.459 47.4687 622.944 48.5845 622.723 50.3698C622.502 52.1551 622.392 55.0935 622.392 59.1848V103.036C622.392 105.714 623.165 107.723 624.711 109.062C626.257 110.327 628.393 111.219 631.117 111.74C632.369 111.963 633.289 112.223 633.878 112.521C634.467 112.819 634.762 113.228 634.762 113.748C634.762 114.195 634.467 114.492 633.878 114.641C633.289 114.864 632.516 114.976 631.559 114.976C629.571 114.976 627.914 114.901 626.589 114.753C625.337 114.678 624.122 114.604 622.944 114.529C621.766 114.455 620.33 114.418 618.636 114.418C616.796 114.418 615.176 114.455 613.777 114.529C612.451 114.604 611.052 114.678 609.58 114.753C608.181 114.901 606.487 114.976 604.499 114.976Z" fill="#5A9E2F"/>
<path d="M694.337 115.98C689.477 115.98 684.838 115.125 680.42 113.414C676.002 111.628 672.1 109.136 668.713 105.938C665.326 102.665 662.638 98.7964 660.65 94.3331C658.662 89.7954 657.668 84.7742 657.668 79.2695C657.668 74.2112 658.478 69.3759 660.098 64.7639C661.718 60.0775 664.111 55.9117 667.277 52.2667C670.443 48.6217 674.383 45.7206 679.095 43.5633C683.808 41.4061 689.219 40.3275 695.331 40.3275C700.191 40.3275 704.83 41.2201 709.248 43.0054C713.665 44.7163 717.568 47.2083 720.955 50.4814C724.342 53.6801 727.03 57.5483 729.018 62.0859C731.006 66.5492 732 71.5332 732 77.0379C732 82.0219 731.19 86.8571 729.57 91.5436C727.95 96.23 725.557 100.396 722.391 104.041C719.225 107.686 715.285 110.587 710.573 112.744C705.86 114.901 700.448 115.98 694.337 115.98ZM695.994 111.517C701.663 111.517 706.376 110.327 710.131 107.946C713.886 105.491 716.684 102.107 718.525 97.7921C720.44 93.4033 721.397 88.3077 721.397 82.5054C721.397 77.3726 720.808 72.5374 719.63 67.9998C718.452 63.4621 716.684 59.4823 714.328 56.0605C712.046 52.5643 709.174 49.8491 705.713 47.915C702.252 45.9809 698.203 45.0139 693.564 45.0139C688.041 45.0139 683.402 46.2041 679.647 48.5845C675.892 50.9649 673.057 54.3124 671.143 58.6269C669.228 62.867 668.271 67.8882 668.271 73.6904C668.271 78.8976 668.823 83.77 669.928 88.3077C671.106 92.8453 672.836 96.8623 675.119 100.359C677.475 103.855 680.384 106.607 683.844 108.616C687.305 110.55 691.355 111.517 695.994 111.517Z" fill="#5A9E2F"/>
<path d="M799.866 114.98C799.128 114.98 797.467 114.906 794.884 114.758C792.374 114.61 789.458 114.461 786.137 114.313C782.889 114.239 779.789 114.202 776.836 114.202C775.36 114.202 774.105 114.239 773.072 114.313C772.112 114.387 771.042 114.461 769.861 114.536C768.754 114.684 767.204 114.758 765.211 114.758C764.251 114.758 763.476 114.647 762.886 114.424C762.295 114.202 762 113.832 762 113.313C762 112.721 762.295 112.35 762.886 112.202C763.476 111.98 764.399 111.758 765.654 111.536C768.459 111.017 770.378 110.165 771.411 108.98C772.518 107.795 773.072 105.869 773.072 103.202V53.2022C773.072 50.5356 772.518 48.6467 771.411 47.5356C770.378 46.4244 768.459 45.6096 765.654 45.0911C764.399 44.8689 763.476 44.6467 762.886 44.4244C762.295 44.1281 762 43.6837 762 43.0911C762 42.5726 762.295 42.2022 762.886 41.98C763.476 41.7578 764.251 41.6467 765.211 41.6467C767.13 41.6467 768.643 41.6837 769.75 41.7578C770.931 41.7578 772.075 41.7948 773.183 41.8689C774.29 41.8689 775.729 41.8689 777.501 41.8689C778.682 41.8689 780.158 41.8319 781.929 41.7578C783.775 41.6837 785.657 41.5726 787.576 41.4244C789.569 41.2763 791.341 41.1652 792.891 41.0911C794.514 41.017 795.695 40.98 796.434 40.98C803.963 40.98 810.384 41.9059 815.699 43.7578C821.013 45.5356 825.331 48.0541 828.653 51.3133C831.974 54.4985 834.41 58.2393 835.96 62.5356C837.584 66.7578 838.396 71.3133 838.396 76.2022C838.396 81.5356 837.4 86.5356 835.407 91.2022C833.414 95.8689 830.646 100.017 827.103 103.647C823.56 107.202 819.463 109.98 814.813 111.98C810.163 113.98 805.18 114.98 799.866 114.98ZM798.537 111.091C804.295 111.091 809.388 109.684 813.816 106.869C818.245 104.054 821.678 100.165 824.113 95.2022C826.623 90.2393 827.878 84.5356 827.878 78.0911C827.878 72.7578 826.992 68.017 825.221 63.8689C823.449 59.6467 821.087 56.1281 818.135 53.3133C815.182 50.4244 811.86 48.2393 808.17 46.7578C804.479 45.2022 800.752 44.4244 796.987 44.4244C793.813 44.4244 791.082 44.5356 788.794 44.7578C786.58 44.9059 784.882 45.4615 783.701 46.4244C782.52 47.3874 781.929 48.98 781.929 51.2022V100.758C781.929 103.721 782.741 105.943 784.365 107.424C785.989 108.906 788.056 109.906 790.565 110.424C793.149 110.869 795.806 111.091 798.537 111.091Z" fill="#5A9E2F"/>
<path d="M841.898 114.758C840.939 114.758 840.164 114.61 839.573 114.313C838.983 114.091 838.688 113.758 838.688 113.313C838.688 112.795 838.983 112.35 839.573 111.98C840.238 111.536 841.16 111.128 842.341 110.758C844.26 110.165 846.032 109.276 847.656 108.091C849.28 106.906 850.682 104.943 851.863 102.202C853.93 97.4615 855.812 93.017 857.51 88.8689C859.281 84.7207 860.942 80.6467 862.492 76.6467C864.042 72.6467 865.629 68.4985 867.253 64.2022C868.951 59.8318 870.722 55.0911 872.568 49.98C872.937 48.943 873.269 47.9059 873.564 46.8689C873.859 45.8319 874.044 44.7207 874.118 43.5356C874.782 43.3133 875.446 43.0911 876.111 42.8689C876.775 42.6467 877.439 42.3133 878.104 41.8689C878.768 41.4244 879.211 40.7578 879.432 39.8689C879.727 38.98 879.986 38.3874 880.207 38.0911C880.281 38.017 880.355 37.98 880.429 37.98C880.576 37.98 880.687 38.0541 880.761 38.2022C880.908 38.4985 881.019 38.8689 881.093 39.3133C881.241 39.7578 881.388 40.2022 881.536 40.6467C883.307 46.2763 885.153 52.017 887.072 57.8689C888.991 63.7207 890.836 69.3874 892.608 74.8689C894.453 80.2763 896.114 85.1652 897.59 89.5356C899.14 93.8318 900.358 97.3133 901.244 99.98C902.277 102.943 903.384 105.165 904.565 106.647C905.746 108.128 906.964 109.165 908.219 109.758C909.548 110.35 910.95 110.795 912.426 111.091C913.681 111.313 914.604 111.684 915.194 112.202C915.785 112.647 916.08 113.128 916.08 113.647C916.08 114.091 915.785 114.387 915.194 114.536C914.604 114.684 913.829 114.758 912.869 114.758C911.836 114.758 910.434 114.684 908.662 114.536C906.891 114.461 905.008 114.35 903.015 114.202C901.022 114.128 899.177 114.091 897.479 114.091C896.077 114.091 894.638 114.091 893.161 114.091C891.685 114.091 890.32 114.128 889.065 114.202C887.81 114.202 886.74 114.202 885.854 114.202C884.894 114.202 884.119 114.091 883.529 113.869C882.938 113.647 882.643 113.313 882.643 112.869C882.643 112.35 883.012 111.906 883.75 111.536C884.488 111.165 885.337 110.906 886.297 110.758C888.733 110.387 890.467 109.758 891.501 108.869C892.534 107.98 893.051 106.943 893.051 105.758C893.051 104.647 892.792 103.054 892.276 100.98C891.833 98.8318 891.279 96.5726 890.615 94.2022C889.951 91.7578 889.323 89.6096 888.733 87.7578C888.585 87.1652 888.29 86.8318 887.847 86.7578C887.478 86.6096 886.777 86.5356 885.743 86.5356H864.817C864.522 86.5356 864.19 86.6837 863.821 86.98C863.526 87.2022 863.23 87.7207 862.935 88.5356C862.714 89.2763 862.345 90.4615 861.828 92.0911C861.311 93.6467 860.795 95.3133 860.278 97.0911C859.761 98.8689 859.318 100.461 858.949 101.869C858.58 103.276 858.396 104.165 858.396 104.536C858.396 106.165 859.023 107.536 860.278 108.647C861.533 109.684 863.046 110.424 864.817 110.869C867.253 111.536 868.471 112.276 868.471 113.091C868.471 113.536 868.176 113.869 867.585 114.091C866.995 114.239 866.22 114.313 865.26 114.313C864.301 114.313 862.898 114.276 861.053 114.202C859.208 114.128 857.252 114.091 855.185 114.091C852.749 114.091 850.387 114.202 848.099 114.424C845.811 114.647 843.744 114.758 841.898 114.758ZM867.807 82.8689H884.968C886.002 82.8689 886.518 82.6837 886.518 82.3133C886.518 82.1652 886.481 82.017 886.408 81.8689C886.408 81.6467 886.371 81.4244 886.297 81.2022L877.661 54.0911C877.218 52.7578 876.886 52.0911 876.664 52.0911C876.517 52.0911 876.221 52.7207 875.778 53.98L865.703 81.2022C865.555 81.6467 865.482 81.943 865.482 82.0911C865.482 82.4615 865.666 82.6837 866.035 82.7578C866.478 82.8318 867.069 82.8689 867.807 82.8689Z" fill="#5A9E2F"/>
<path d="M927.394 114.758C926.435 114.758 925.66 114.647 925.069 114.424C924.479 114.276 924.183 113.98 924.183 113.536C924.183 113.017 924.479 112.61 925.069 112.313C925.66 112.017 926.582 111.758 927.837 111.536C930.642 111.017 932.783 110.017 934.259 108.536C935.735 106.98 936.473 104.869 936.473 102.202V85.7578C936.473 84.2763 936.067 82.6837 935.255 80.98C934.517 79.2022 934.001 78.0541 933.705 77.5356L920.751 56.2022C920.235 55.3133 919.423 54.0911 918.315 52.5356C917.208 50.9059 915.99 49.3874 914.662 47.98C913.407 46.5726 912.152 45.6837 910.897 45.3133C909.716 44.943 908.794 44.5726 908.129 44.2022C907.539 43.8318 907.243 43.3874 907.243 42.8689C907.243 42.4244 907.539 42.1281 908.129 41.98C908.72 41.7578 909.495 41.6467 910.454 41.6467C912.152 41.6467 914.108 41.7207 916.322 41.8689C918.537 41.943 920.899 41.98 923.408 41.98C925.106 41.98 926.693 41.943 928.169 41.8689C929.719 41.7948 931.085 41.7578 932.266 41.7578C933.226 41.7578 934.001 41.8689 934.591 42.0911C935.182 42.2393 935.477 42.5356 935.477 42.98C935.477 43.4985 935.182 43.943 934.591 44.3133C934.001 44.6096 933.078 44.9059 931.823 45.2022C930.79 45.4985 929.941 45.8318 929.277 46.2022C928.612 46.5726 928.28 47.1652 928.28 47.98C928.28 48.943 928.76 50.2763 929.719 51.98L939.906 70.8689C941.382 73.6837 942.415 75.0911 943.006 75.0911C943.449 75.0911 943.928 74.7948 944.445 74.2022C944.962 73.5356 945.7 72.4244 946.659 70.8689C948.357 68.2763 949.87 65.7948 951.199 63.4244C952.528 61.0541 954.115 58.2022 955.96 54.8689C956.698 53.6096 957.215 52.5356 957.51 51.6467C957.805 50.6837 957.953 49.8689 957.953 49.2022C957.953 47.7948 957.436 46.8318 956.403 46.3133C955.443 45.7948 954.447 45.4615 953.413 45.3133C952.675 45.1652 951.863 44.9059 950.977 44.5356C950.166 44.0911 949.76 43.6096 949.76 43.0911C949.76 42.6467 950.055 42.3504 950.645 42.2022C951.236 41.98 952.011 41.8689 952.97 41.8689C954.668 41.8689 956.071 41.9059 957.178 41.98C958.285 41.98 959.65 41.98 961.274 41.98C963.563 41.98 965.74 41.943 967.807 41.8689C969.874 41.7207 971.534 41.6467 972.789 41.6467C973.749 41.6467 974.524 41.7578 975.114 41.98C975.705 42.1281 976 42.4244 976 42.8689C976 43.3874 975.409 43.8689 974.228 44.3133C973.047 44.7578 971.682 45.2022 970.132 45.6467C968.213 46.1652 966.589 47.2393 965.26 48.8689C964.005 50.4244 962.382 52.7207 960.389 55.7578C958.912 58.0541 957.658 59.98 956.624 61.5356C955.665 63.0911 954.742 64.5356 953.856 65.8689C953.044 67.2022 952.195 68.6096 951.31 70.0911C950.424 71.4985 949.354 73.2393 948.099 75.3133C947.139 76.8689 946.475 78.1281 946.106 79.0911C945.737 80.0541 945.515 80.98 945.442 81.8689C945.368 82.6837 945.331 83.8318 945.331 85.3133V102.202C945.331 104.721 946.106 106.795 947.656 108.424C949.206 109.98 951.347 111.017 954.078 111.536C955.332 111.758 956.255 112.017 956.846 112.313C957.436 112.61 957.731 113.017 957.731 113.536C957.731 113.98 957.436 114.276 956.846 114.424C956.255 114.647 955.48 114.758 954.52 114.758C952.528 114.758 950.867 114.684 949.538 114.536C948.283 114.461 947.065 114.387 945.884 114.313C944.703 114.239 943.264 114.202 941.566 114.202C939.721 114.202 938.097 114.239 936.695 114.313C935.366 114.387 933.964 114.461 932.487 114.536C931.085 114.684 929.387 114.758 927.394 114.758Z" fill="#5A9E2F"/>
</svg>
