<svg width="753" height="137" viewBox="0 0 753 137" fill="none" xmlns="http://www.w3.org/2000/svg">
<path fill-rule="evenodd" clip-rule="evenodd" d="M115.5 119C115.5 119 145.055 123.335 161.5 117.5C177 112 176 79.5 188 51C195.031 34.3025 207.5 23 207.5 23C207.5 23 175.331 37.669 153.5 59.5C131.669 81.3309 115.5 119 115.5 119Z" fill="url(#paint0_radial_40_166)"/>
<path d="M136.717 42.7168C164.331 15.1026 213.217 19.2168 213.217 19.2168C213.217 19.2168 174.331 36.669 152.5 58.5C130.669 80.331 113.217 119.217 113.217 119.217C113.217 119.217 109.103 70.331 136.717 42.7168Z" fill="url(#paint1_linear_40_166)"/>
<path fill-rule="evenodd" clip-rule="evenodd" d="M97.717 119C97.717 119 68.1618 123.335 51.717 117.5C36.217 112 37.217 79.5 25.217 51C18.1865 34.3025 5.71704 23 5.71704 23C5.71704 23 37.8859 37.669 59.7169 59.5C81.5479 81.3309 97.717 119 97.717 119Z" fill="url(#paint2_radial_40_166)"/>
<path d="M76.4999 42.7168C48.8857 15.1026 -3.05176e-05 19.2168 -3.05176e-05 19.2168C-3.05176e-05 19.2168 38.8858 36.669 60.7168 58.5C82.5478 80.331 100 119.217 100 119.217C100 119.217 104.114 70.331 76.4999 42.7168Z" fill="url(#paint3_linear_40_166)"/>
<path d="M107.797 0C108.222 0.292669 108.664 2.20505 108.781 2.75445C110.855 12.5605 116.391 16.3639 126.064 17.981C113.604 20.2505 110.445 27.5487 107.806 38.9599C107.5 38.2208 107.173 36.3783 106.97 35.5334C104.319 24.4919 100.134 20.1841 89.0616 18.0396C100.052 16.4872 106.323 11.3283 107.797 0Z" fill="#C6EC7B"/>
<path d="M243.005 118.752C241.808 118.752 240.841 118.612 240.105 118.331C239.368 118.143 239 117.769 239 117.207C239 116.083 240.519 115.24 243.557 114.678C247.056 114.022 249.633 112.945 251.29 111.446C252.948 109.948 253.776 107.512 253.776 104.14V40.9174C253.776 37.5455 253.086 35.157 251.705 33.7521C250.416 32.3471 248.022 31.3168 244.524 30.6612C242.959 30.3802 241.808 30.0055 241.071 29.5372C240.335 29.0689 239.967 28.5069 239.967 27.8512C239.967 27.2893 240.335 26.9146 241.071 26.7273C241.808 26.4463 242.775 26.3058 243.971 26.3058C247.47 26.3058 250.416 26.3526 252.809 26.4463C255.295 26.5399 257.689 26.6336 259.99 26.7273C262.384 26.7273 265.192 26.7273 268.414 26.7273C271.452 26.7273 274.628 26.7273 277.943 26.7273C281.349 26.6336 284.479 26.5868 287.333 26.5868C290.463 26.4931 293.087 26.4463 295.205 26.4463C297.414 26.3526 298.703 26.3058 299.071 26.3058C299.532 26.3058 300.038 26.3994 300.59 26.5868C301.143 26.7741 301.465 27.1019 301.557 27.5702C302.017 30.1928 302.478 32.8154 302.938 35.438C303.398 37.9669 303.628 40.168 303.628 42.0413C303.628 42.8843 303.398 43.4463 302.938 43.7273C302.57 44.0083 302.155 44.1488 301.695 44.1488C301.235 44.1488 300.913 44.0551 300.728 43.8678C300.544 43.5868 300.36 43.2121 300.176 42.7438C299.716 41.1515 299.255 39.6529 298.795 38.2479C298.335 36.7493 297.782 35.6722 297.138 35.0165C295.849 33.5179 294.422 32.5344 292.857 32.0661C291.292 31.5041 289.635 31.2231 287.886 31.2231H269.795C269.059 31.2231 268.046 31.6446 266.757 32.4876C265.468 33.3306 264.824 34.4077 264.824 35.719V65.5041C264.824 66.3471 265.054 67.0964 265.514 67.7521C266.067 68.314 266.665 68.595 267.309 68.595H280.981C283.651 68.595 285.492 68.1267 286.505 67.1901C287.517 66.1598 288.346 64.3333 288.99 61.7107C289.543 59.6501 290.371 58.6198 291.476 58.6198C291.844 58.6198 292.213 58.8072 292.581 59.1818C293.041 59.5565 293.271 60.1185 293.271 60.8678C293.271 61.2424 293.225 62.0854 293.133 63.3967C293.133 64.708 293.087 66.0661 292.995 67.4711C292.903 68.876 292.857 69.9532 292.857 70.7025C292.857 71.6391 292.857 72.9036 292.857 74.4959C292.949 75.9945 292.995 77.4463 292.995 78.8512C293.087 80.2562 293.133 81.146 293.133 81.5207C293.133 82.1763 293.041 82.7383 292.857 83.2066C292.765 83.6749 292.443 83.9091 291.89 83.9091C290.509 83.9091 289.451 82.4105 288.714 79.4132C288.162 77.259 287.425 75.6667 286.505 74.6364C285.584 73.6061 284.203 73.0909 282.362 73.0909H269.519C267.954 73.0909 266.757 73.3251 265.929 73.7934C265.192 74.168 264.824 75.1515 264.824 76.7438V103.719C264.824 107.278 265.56 109.76 267.033 111.165C268.506 112.477 270.808 113.132 273.938 113.132H284.157C287.103 113.132 289.543 112.992 291.476 112.711C293.501 112.336 295.251 111.68 296.724 110.744C298.197 109.713 299.486 108.355 300.59 106.669C301.787 104.983 303.122 102.736 304.595 99.9256C304.871 99.3636 305.193 98.8953 305.562 98.5207C305.93 98.146 306.344 98.0055 306.805 98.0992C307.265 98.1928 307.633 98.427 307.909 98.8016C308.186 99.0826 308.324 99.5041 308.324 100.066C308.324 100.909 308.093 102.408 307.633 104.562C307.173 106.623 306.574 108.777 305.838 111.025C305.193 113.273 304.595 115.052 304.043 116.364C303.767 117.019 303.49 117.581 303.214 118.05C303.03 118.518 302.662 118.752 302.109 118.752C297.69 118.752 293.594 118.705 289.819 118.612C286.044 118.518 282.454 118.424 279.048 118.331C275.641 118.237 272.281 118.143 268.967 118.05C265.744 117.956 262.384 117.909 258.886 117.909C256.86 117.909 255.111 117.956 253.638 118.05C252.165 118.237 250.646 118.377 249.081 118.471C247.516 118.658 245.49 118.752 243.005 118.752Z" fill="#D8FF9C"/>
<path d="M337.21 121C336.842 121 336.382 120.251 335.829 118.752C335.277 117.347 334.909 116.317 334.725 115.661C334.08 114.069 333.482 112.43 332.929 110.744C332.377 108.964 331.825 107.325 331.272 105.826C329.247 100.019 327.037 94.3526 324.644 88.8264C322.342 83.2066 320.087 77.5399 317.877 71.8264C317.233 70.1405 316.22 68.6419 314.839 67.3306C313.55 65.9256 312.215 65.0358 310.834 64.6612C310.098 64.3802 309.499 64.0992 309.039 63.8182C308.579 63.5372 308.348 63.0689 308.348 62.4132C308.348 61.8512 308.671 61.5234 309.315 61.4297C310.052 61.2424 310.65 61.1488 311.11 61.1488C312.952 61.1488 314.287 61.1956 315.115 61.2893C315.944 61.3829 316.772 61.5234 317.601 61.7107C318.429 61.8044 319.626 61.8512 321.191 61.8512C322.848 61.8512 324.091 61.8044 324.92 61.7107C325.748 61.5234 326.623 61.3829 327.544 61.2893C328.464 61.1956 329.799 61.1488 331.548 61.1488C332.009 61.1488 332.561 61.2424 333.206 61.4297C333.942 61.5234 334.31 61.8512 334.31 62.4132C334.31 63.0689 333.988 63.584 333.344 63.9587C332.699 64.3333 331.963 64.6612 331.134 64.9421C330.213 65.3168 329.523 66.0661 329.063 67.1901C328.602 68.2204 328.372 69.3912 328.372 70.7025C328.372 71.3581 328.418 72.0138 328.51 72.6694C328.602 73.3251 328.74 73.9339 328.925 74.4959L339.834 104C339.926 104.094 339.972 104.14 339.972 104.14C340.064 104.14 340.156 104.094 340.248 104L350.744 76.6033C351.112 75.6667 351.388 74.6832 351.572 73.6529C351.756 72.5289 351.848 71.5923 351.848 70.843C351.848 68.9697 351.572 67.6584 351.02 66.9091C350.467 66.0661 349.547 65.4105 348.258 64.9421C347.061 64.4738 346.232 64.0992 345.772 63.8182C345.312 63.5372 345.082 63.0689 345.082 62.4132C345.082 61.8512 345.358 61.5234 345.91 61.4297C346.555 61.2424 347.199 61.1488 347.844 61.1488C348.856 61.1488 350.191 61.2893 351.848 61.5702C353.505 61.7576 355.531 61.8512 357.925 61.8512C360.318 61.8512 361.929 61.7576 362.758 61.5702C363.678 61.2893 364.783 61.1488 366.072 61.1488C366.809 61.1488 367.453 61.2424 368.005 61.4297C368.558 61.5234 368.834 61.8512 368.834 62.4132C368.834 63.4435 367.775 64.2865 365.658 64.9421C364.277 65.3168 362.758 66.3939 361.101 68.1736C359.444 69.9532 358.109 72.0138 357.096 74.3554L346.325 100.769C346.14 101.143 345.772 102.08 345.22 103.579C344.667 104.983 344.069 106.576 343.425 108.355C342.78 110.041 342.228 111.54 341.767 112.851C341.307 114.069 341.077 114.678 341.077 114.678C341.077 114.678 340.893 115.146 340.525 116.083C340.156 116.926 339.742 117.815 339.282 118.752C338.821 119.782 338.407 120.532 338.039 121H337.21Z" fill="#D8FF9C"/>
<path d="M397.017 120.017C391.862 120.017 387.213 118.799 383.07 116.364C378.927 113.928 375.613 110.603 373.127 106.388C370.733 102.08 369.536 97.2094 369.536 91.7769C369.536 87.843 370.273 84.0027 371.746 80.2562C373.311 76.5096 375.474 73.0909 378.236 70C380.998 66.9091 384.22 64.4738 387.903 62.6942C391.586 60.8209 395.544 59.8843 399.779 59.8843C405.119 59.8843 409.906 61.1956 414.141 63.8182C418.468 66.4408 421.874 69.9063 424.36 74.2149C426.938 78.4297 428.227 83.0661 428.227 88.124C428.227 93.5565 427.03 98.708 424.636 103.579C422.335 108.449 418.882 112.43 414.279 115.521C409.676 118.518 403.922 120.017 397.017 120.017ZM399.917 115.802C403.047 115.802 405.855 115.193 408.341 113.975C410.827 112.758 412.76 110.791 414.141 108.074C415.246 105.92 415.982 103.298 416.351 100.207C416.719 97.1157 416.903 94.2121 416.903 91.4959C416.903 87 416.074 82.6915 414.417 78.5702C412.852 74.3554 410.597 70.9366 407.651 68.314C404.797 65.5978 401.39 64.2397 397.432 64.2397C394.946 64.2397 392.69 64.6612 390.665 65.5041C388.732 66.2534 386.936 67.7052 385.279 69.8595C383.438 72.2011 382.241 75.0578 381.689 78.4297C381.136 81.8016 380.86 85.1736 380.86 88.5455C380.86 93.135 381.689 97.5372 383.346 101.752C385.003 105.873 387.259 109.245 390.113 111.868C392.966 114.49 396.235 115.802 399.917 115.802Z" fill="#D8FF9C"/>
<path d="M436.439 118.471C435.979 118.471 435.38 118.377 434.644 118.19C433.999 118.096 433.677 117.769 433.677 117.207C433.677 116.457 433.999 115.942 434.644 115.661C435.38 115.286 436.117 114.959 436.853 114.678C438.234 114.209 439.569 113.694 440.858 113.132C442.147 112.477 442.791 111.212 442.791 109.339V38.5289C442.791 35.8127 442.285 33.5647 441.272 31.7851C440.352 29.9118 438.741 28.741 436.439 28.2727C435.703 28.0854 435.334 27.4766 435.334 26.4463C435.334 25.5096 435.657 24.9477 436.301 24.7603C438.695 24.1983 440.766 23.6364 442.515 23.0744C444.264 22.4187 445.876 21.7631 447.349 21.1074C448.914 20.4518 450.433 19.843 451.906 19.281C452.274 19.0937 452.55 19 452.734 19C452.918 19 453.056 19.1405 453.149 19.4215C453.333 19.6088 453.425 19.7961 453.425 19.9835C453.425 20.8265 453.241 22.6529 452.872 25.4628C452.596 28.1791 452.458 32.7218 452.458 39.0909V109.339C452.458 111.212 453.102 112.477 454.391 113.132C455.68 113.694 457.015 114.209 458.396 114.678C459.133 114.959 459.823 115.286 460.468 115.661C461.204 115.942 461.572 116.457 461.572 117.207C461.572 117.769 461.204 118.096 460.468 118.19C459.823 118.377 459.271 118.471 458.81 118.471C457.061 118.471 455.634 118.377 454.529 118.19C453.517 118.096 452.504 118.003 451.491 117.909C450.571 117.815 449.282 117.769 447.625 117.769C446.06 117.769 444.771 117.815 443.758 117.909C442.745 118.003 441.733 118.096 440.72 118.19C439.707 118.377 438.28 118.471 436.439 118.471Z" fill="#D8FF9C"/>
<path d="M514.771 120.719C514.127 120.719 513.805 120.344 513.805 119.595C513.805 118.658 513.897 117.3 514.081 115.521C514.357 113.647 514.495 112.102 514.495 110.884C514.495 110.697 514.495 110.556 514.495 110.463C514.495 110.275 514.495 110.135 514.495 110.041C510.905 113.601 507.268 116.176 503.586 117.769C499.995 119.267 496.036 120.017 491.709 120.017C488.763 120.017 486.094 119.361 483.7 118.05C481.306 116.832 479.419 115.006 478.038 112.57C476.657 110.041 475.967 106.95 475.967 103.298V74.7769C475.967 72.7162 475.506 71.0771 474.586 69.8595C473.665 68.6419 472.146 67.6116 470.028 66.7686C469.568 66.5813 469.154 66.3471 468.786 66.0661C468.417 65.7851 468.233 65.27 468.233 64.5207C468.233 63.6777 468.417 63.1157 468.786 62.8347C469.246 62.5537 469.752 62.3664 470.305 62.2727C473.435 62.0854 475.828 61.8512 477.486 61.5702C479.235 61.1956 481.398 60.6804 483.976 60.0248C484.252 59.9311 484.436 59.8843 484.528 59.8843C484.713 59.8843 484.897 59.8843 485.081 59.8843C486.094 59.8843 486.554 60.5399 486.462 61.8512C486.186 64.0055 485.955 65.832 485.771 67.3306C485.679 68.7355 485.633 70.5151 485.633 72.6694V100.066C485.633 102.314 486.186 104.421 487.29 106.388C488.395 108.262 489.822 109.807 491.571 111.025C493.413 112.242 495.3 112.851 497.233 112.851C499.627 112.851 501.698 112.711 503.447 112.43C505.289 112.149 507.084 111.353 508.833 110.041C509.846 109.292 511.135 108.074 512.7 106.388C514.265 104.702 515.047 102.408 515.047 99.5041V73.7934C515.047 71.8264 514.449 70.3747 513.252 69.438C512.147 68.4077 510.859 67.7052 509.386 67.3306C507.912 66.9559 506.716 66.7686 505.795 66.7686C504.966 66.7686 504.276 66.6281 503.724 66.3471C503.171 65.9724 502.895 65.3168 502.895 64.3802C502.895 63.5372 503.171 62.9752 503.724 62.6942C504.368 62.4132 505.059 62.2727 505.795 62.2727C508.649 62.1791 510.997 62.0854 512.838 61.9917C514.771 61.8044 516.474 61.5702 517.947 61.2893C519.512 60.9146 521.124 60.4931 522.781 60.0248C522.965 59.9311 523.195 59.8843 523.471 59.8843C523.747 59.7906 523.978 59.7438 524.162 59.7438C525.359 59.7438 525.957 60.259 525.957 61.2893C525.957 61.3829 525.911 61.5702 525.819 61.8512C525.819 62.0386 525.773 62.2727 525.681 62.5537C525.589 62.8347 525.451 63.6309 525.266 64.9421C525.174 66.2534 525.036 67.6116 524.852 69.0165C524.76 70.4215 524.714 71.4986 524.714 72.2479V104.702C524.714 107.231 524.944 109.058 525.405 110.182C525.957 111.212 526.555 111.727 527.2 111.727C527.936 111.727 528.995 111.68 530.376 111.587C531.849 111.399 532.908 111.306 533.552 111.306C534.012 111.306 534.473 111.399 534.933 111.587C535.393 111.774 535.624 112.289 535.624 113.132C535.624 113.882 535.439 114.397 535.071 114.678C534.703 114.865 534.243 115.005 533.69 115.099C530.1 115.567 527.016 116.27 524.438 117.207C521.86 118.143 519.559 119.033 517.533 119.876C517.257 119.97 516.843 120.11 516.29 120.298C515.738 120.579 515.232 120.719 514.771 120.719Z" fill="#D8FF9C"/>
<path d="M563.152 120.017C558.641 120.017 555.096 118.612 552.519 115.802C550.033 112.992 548.79 108.824 548.79 103.298V70.7025C548.79 69.9532 548.514 69.438 547.961 69.157C547.409 68.7824 546.212 68.595 544.371 68.595H543.542C543.082 68.595 542.668 68.314 542.3 67.7521C542.023 67.0964 541.885 66.4408 541.885 65.7851C541.885 65.5978 542.023 65.3168 542.3 64.9421C542.576 64.5675 542.76 64.3333 542.852 64.2397C544.693 62.9284 546.35 61.6171 547.823 60.3058C549.388 58.9945 550.769 57.73 551.966 56.5124C553.255 55.2011 554.314 54.0303 555.142 53C555.603 52.5317 555.971 52.157 556.247 51.876C556.615 51.5014 557.03 51.314 557.49 51.314C557.95 51.314 558.365 51.4077 558.733 51.595C559.193 51.7824 559.377 52.2039 559.285 52.8595L558.595 59.1818C558.503 60.2121 558.733 60.9146 559.285 61.2893C559.838 61.6639 560.712 61.8512 561.909 61.8512H577.652C578.02 61.8512 578.342 62.1791 578.619 62.8347C578.895 63.3967 579.033 64.0992 579.033 64.9421C579.033 65.7851 578.895 66.6281 578.619 67.4711C578.342 68.2204 578.02 68.595 577.652 68.595H563.98C561.679 68.595 560.16 68.7824 559.423 69.157C558.779 69.5317 558.457 70.6556 558.457 72.5289V100.207C558.457 103.953 559.239 106.904 560.804 109.058C562.369 111.212 564.625 112.289 567.571 112.289C570.241 112.289 572.312 112.102 573.785 111.727C575.258 111.259 576.593 110.603 577.79 109.76C577.974 109.573 578.158 109.479 578.342 109.479C578.711 109.479 578.941 109.713 579.033 110.182C579.217 110.556 579.309 110.978 579.309 111.446C579.309 111.915 578.526 112.851 576.961 114.256C575.488 115.661 573.509 116.972 571.023 118.19C568.63 119.408 566.006 120.017 563.152 120.017Z" fill="#D8FF9C"/>
<path d="M612.791 120.017C607.635 120.017 602.986 118.799 598.843 116.364C594.7 113.928 591.386 110.603 588.9 106.388C586.506 102.08 585.31 97.2094 585.31 91.7769C585.31 87.843 586.046 84.0027 587.519 80.2562C589.084 76.5096 591.248 73.0909 594.01 70C596.772 66.9091 599.994 64.4738 603.676 62.6942C607.359 60.8209 611.318 59.8843 615.552 59.8843C620.892 59.8843 625.679 61.1956 629.914 63.8182C634.241 66.4408 637.648 69.9063 640.133 74.2149C642.711 78.4297 644 83.0661 644 88.124C644 93.5565 642.803 98.708 640.41 103.579C638.108 108.449 634.656 112.43 630.052 115.521C625.449 118.518 619.695 120.017 612.791 120.017ZM615.691 115.802C618.821 115.802 621.629 115.193 624.114 113.975C626.6 112.758 628.533 110.791 629.914 108.074C631.019 105.92 631.756 103.298 632.124 100.207C632.492 97.1157 632.676 94.2121 632.676 91.4959C632.676 87 631.848 82.6915 630.191 78.5702C628.625 74.3554 626.37 70.9366 623.424 68.314C620.57 65.5978 617.164 64.2397 613.205 64.2397C610.719 64.2397 608.464 64.6612 606.438 65.5041C604.505 66.2534 602.71 67.7052 601.052 69.8595C599.211 72.2011 598.014 75.0578 597.462 78.4297C596.91 81.8016 596.633 85.1736 596.633 88.5455C596.633 93.135 597.462 97.5372 599.119 101.752C600.776 105.873 603.032 109.245 605.886 111.868C608.74 114.49 612.008 115.802 615.691 115.802Z" fill="#D8FF9C"/>
<path d="M681.201 120.508C680.807 120.508 679.921 120.469 678.543 120.39C677.204 120.311 675.649 120.232 673.877 120.153C672.144 120.113 670.49 120.093 668.915 120.093C668.127 120.093 667.458 120.113 666.907 120.153C666.395 120.192 665.824 120.232 665.194 120.271C664.603 120.35 663.776 120.39 662.713 120.39C662.201 120.39 661.788 120.331 661.473 120.212C661.158 120.093 661 119.895 661 119.619C661 119.302 661.158 119.105 661.473 119.025C661.788 118.907 662.28 118.788 662.949 118.669C664.446 118.393 665.469 117.938 666.021 117.305C666.611 116.672 666.907 115.644 666.907 114.22V87.5254C666.907 86.1017 666.611 85.0932 666.021 84.5C665.469 83.9068 664.446 83.4718 662.949 83.1949C662.28 83.0763 661.788 82.9576 661.473 82.839C661.158 82.6808 661 82.4435 661 82.1271C661 81.8503 661.158 81.6525 661.473 81.5339C661.788 81.4153 662.201 81.3559 662.713 81.3559C663.737 81.3559 664.544 81.3757 665.135 81.4153C665.765 81.4153 666.375 81.435 666.966 81.4746C667.556 81.4746 668.324 81.4746 669.269 81.4746C669.899 81.4746 670.687 81.4548 671.632 81.4153C672.616 81.3757 673.621 81.3164 674.644 81.2373C675.708 81.1582 676.653 81.0989 677.48 81.0593C678.346 81.0198 678.976 81 679.37 81C683.386 81 686.812 81.4944 689.647 82.4831C692.483 83.4322 694.786 84.7768 696.558 86.5169C698.33 88.2175 699.63 90.2147 700.457 92.5085C701.323 94.7627 701.756 97.1949 701.756 99.8051C701.756 102.653 701.225 105.322 700.161 107.814C699.098 110.305 697.622 112.52 695.731 114.458C693.841 116.356 691.656 117.839 689.175 118.907C686.694 119.975 684.036 120.508 681.201 120.508ZM680.492 118.432C683.564 118.432 686.281 117.681 688.643 116.178C691.006 114.675 692.837 112.599 694.137 109.949C695.475 107.299 696.145 104.254 696.145 100.814C696.145 97.9661 695.672 95.435 694.727 93.2203C693.782 90.9661 692.522 89.0876 690.947 87.5847C689.372 86.0424 687.6 84.8757 685.631 84.0847C683.662 83.2542 681.673 82.839 679.665 82.839C677.972 82.839 676.515 82.8983 675.294 83.017C674.113 83.096 673.207 83.3927 672.577 83.9068C671.947 84.4209 671.632 85.2712 671.632 86.4576V112.915C671.632 114.497 672.065 115.684 672.932 116.475C673.798 117.266 674.9 117.799 676.239 118.076C677.618 118.314 679.035 118.432 680.492 118.432Z" fill="url(#paint4_linear_40_166)"/>
<path d="M710.729 120.924C710.02 120.924 709.292 120.647 708.543 120.093C707.835 119.54 707.224 118.867 706.712 118.076C706.24 117.285 706.003 116.534 706.003 115.822C706.003 114.556 706.338 113.568 707.008 112.856C707.677 112.144 708.74 111.492 710.197 110.898L716.222 108.407C717.01 108.09 717.462 107.814 717.581 107.576C717.738 107.339 717.837 106.825 717.876 106.034L717.994 102.237C718.033 101.209 717.738 100.319 717.108 99.5678C716.517 98.8164 715.651 98.4407 714.509 98.4407C713.918 98.4407 713.328 98.5395 712.737 98.7373C712.146 98.935 711.654 99.1921 711.26 99.5085C711.024 99.6667 710.867 99.904 710.788 100.22C710.709 100.537 710.67 100.873 710.67 101.229C710.67 101.387 710.67 101.565 710.67 101.763C710.709 101.96 710.729 102.138 710.729 102.297C710.729 102.494 710.473 102.771 709.961 103.127C709.488 103.444 708.937 103.74 708.307 104.017C707.716 104.254 707.224 104.373 706.83 104.373C706.634 104.373 706.476 104.333 706.358 104.254C706.24 104.136 706.181 103.997 706.181 103.839C706.181 103.206 706.378 102.534 706.771 101.822C707.205 101.071 707.795 100.379 708.543 99.7458C709.449 98.9153 710.433 98.1836 711.497 97.5508C712.56 96.9181 713.603 96.4237 714.627 96.0678C715.651 95.7119 716.557 95.5339 717.344 95.5339C718.762 95.5339 719.924 96.048 720.829 97.0763C721.774 98.065 722.227 99.3107 722.188 100.814L721.892 115.051C721.853 115.881 722.03 116.554 722.424 117.068C722.857 117.582 723.389 117.839 724.019 117.839C725.003 117.839 725.732 117.621 726.204 117.186C726.401 116.989 726.559 116.89 726.677 116.89C726.874 116.89 727.031 116.949 727.149 117.068C727.268 117.186 727.327 117.345 727.327 117.542C727.327 117.977 727.11 118.412 726.677 118.847C726.047 119.48 725.358 119.975 724.61 120.331C723.901 120.726 723.231 120.924 722.601 120.924C720.79 120.924 719.353 119.895 718.289 117.839H718.112C716.813 118.907 715.572 119.678 714.391 120.153C713.21 120.667 711.989 120.924 710.729 120.924ZM713.505 118.076C714.293 118.076 714.962 117.958 715.513 117.72C716.065 117.444 716.557 117.088 716.99 116.653C717.187 116.455 717.344 116.198 717.462 115.881C717.62 115.525 717.718 114.972 717.758 114.22L717.876 111.314C717.915 110.879 717.896 110.562 717.817 110.364C717.738 110.167 717.581 110.068 717.344 110.068C717.266 110.068 717.128 110.088 716.931 110.127C716.734 110.167 716.478 110.246 716.163 110.364C714.076 111.116 712.619 111.907 711.792 112.737C711.004 113.528 710.611 114.26 710.611 114.932C710.611 115.96 710.906 116.751 711.497 117.305C712.127 117.819 712.796 118.076 713.505 118.076Z" fill="url(#paint5_linear_40_166)"/>
<path d="M730.614 137C729.865 137 729.176 136.802 728.546 136.407C727.916 136.051 727.601 135.438 727.601 134.568C727.601 133.856 727.759 133.223 728.074 132.669C728.428 132.155 728.92 131.898 729.55 131.898C729.984 131.898 730.397 131.958 730.791 132.076C731.224 132.195 731.598 132.254 731.913 132.254C732.149 132.254 732.346 132.195 732.504 132.076C732.701 131.997 732.878 131.839 733.035 131.602C733.469 130.89 733.961 130 734.512 128.932C735.103 127.864 735.693 126.658 736.284 125.314C736.914 123.969 737.505 122.545 738.056 121.042C738.174 120.686 738.233 120.232 738.233 119.678C738.233 119.362 738.214 119.065 738.174 118.788C738.135 118.472 738.076 118.195 737.997 117.958L731.145 100.576C730.87 99.8644 730.495 99.2514 730.023 98.7373C729.59 98.1836 729.078 97.8277 728.487 97.6695C728.172 97.5508 727.857 97.4124 727.542 97.2542C727.266 97.096 727.129 96.8785 727.129 96.6017C727.129 96.3644 727.266 96.226 727.542 96.1864C727.857 96.1073 728.113 96.0678 728.31 96.0678C729.098 96.0678 729.669 96.0876 730.023 96.1271C730.417 96.1667 730.771 96.226 731.086 96.3051C731.441 96.3446 731.952 96.3644 732.622 96.3644C733.331 96.3644 733.862 96.3446 734.217 96.3051C734.571 96.226 734.945 96.1667 735.339 96.1271C735.733 96.0876 736.323 96.0678 737.111 96.0678C737.347 96.0678 737.603 96.1271 737.879 96.2458C738.155 96.3249 738.292 96.4831 738.292 96.7203C738.292 96.9972 738.076 97.274 737.643 97.5508C737.249 97.7881 736.894 97.9463 736.579 98.0254C736.186 98.1441 735.89 98.3616 735.693 98.678C735.496 98.9548 735.398 99.3701 735.398 99.9237C735.398 100.161 735.457 100.458 735.575 100.814C735.693 101.13 735.792 101.387 735.871 101.585L740.655 113.449C740.734 113.686 740.852 113.805 741.009 113.805C741.128 113.805 741.226 113.686 741.305 113.449L745.38 102.593C745.498 102.316 745.597 101.96 745.676 101.525C745.794 101.051 745.853 100.675 745.853 100.398C745.853 99.6469 745.735 99.1328 745.498 98.8559C745.302 98.5395 745.026 98.3023 744.672 98.1441C744.357 97.9859 743.982 97.7881 743.549 97.5508C743.156 97.274 742.959 96.9972 742.959 96.7203C742.959 96.4831 743.096 96.3249 743.372 96.2458C743.687 96.1271 743.943 96.0678 744.14 96.0678C744.691 96.0678 745.243 96.1271 745.794 96.2458C746.385 96.3249 747.231 96.3644 748.334 96.3644C749.082 96.3644 749.613 96.3446 749.929 96.3051C750.283 96.226 750.578 96.1667 750.815 96.1271C751.051 96.0876 751.386 96.0678 751.819 96.0678C752.016 96.0678 752.252 96.1073 752.527 96.1864C752.842 96.226 753 96.3644 753 96.6017C753 96.8785 752.842 97.096 752.527 97.2542C752.252 97.4124 751.956 97.5508 751.641 97.6695C751.051 97.8277 750.421 98.3023 749.751 99.0932C749.082 99.8446 748.55 100.695 748.157 101.644L740.123 120.864C740.084 120.983 739.867 121.497 739.474 122.407C739.119 123.316 738.666 124.444 738.115 125.788C737.564 127.133 736.953 128.576 736.284 130.119C735.654 131.661 735.044 133.144 734.453 134.568C734.099 135.359 733.587 135.952 732.917 136.347C732.248 136.782 731.48 137 730.614 137Z" fill="url(#paint6_linear_40_166)"/>
<defs>
<radialGradient id="paint0_radial_40_166" cx="0" cy="0" r="1" gradientUnits="userSpaceOnUse" gradientTransform="translate(137.5 57) rotate(39.2894) scale(56.8507 154.012)">
<stop stop-opacity="0"/>
<stop offset="0.447027" stop-color="#122E10" stop-opacity="0.25"/>
<stop offset="0.749814" stop-color="#386224" stop-opacity="0.5"/>
<stop offset="1" stop-color="#7DAF50"/>
</radialGradient>
<linearGradient id="paint1_linear_40_166" x1="206.5" y1="19" x2="113" y2="119" gradientUnits="userSpaceOnUse">
<stop stop-color="#C6EC7B"/>
<stop offset="0.451958" stop-color="#C6F375"/>
<stop offset="1" stop-color="#48772B"/>
</linearGradient>
<radialGradient id="paint2_radial_40_166" cx="0" cy="0" r="1" gradientUnits="userSpaceOnUse" gradientTransform="translate(75.717 57) rotate(140.711) scale(56.8507 154.012)">
<stop stop-opacity="0"/>
<stop offset="0.447027" stop-color="#122E10" stop-opacity="0.25"/>
<stop offset="0.749814" stop-color="#386224" stop-opacity="0.5"/>
<stop offset="1" stop-color="#7DAF50"/>
</radialGradient>
<linearGradient id="paint3_linear_40_166" x1="6.71679" y1="19" x2="100.217" y2="119" gradientUnits="userSpaceOnUse">
<stop stop-color="#C6EC7B"/>
<stop offset="0.451958" stop-color="#C6F375"/>
<stop offset="1" stop-color="#48772B"/>
</linearGradient>
<linearGradient id="paint4_linear_40_166" x1="717.151" y1="60.5" x2="697.189" y2="135" gradientUnits="userSpaceOnUse">
<stop stop-color="#B1E265"/>
<stop offset="0.44715" stop-color="#C4F27D"/>
<stop offset="0.745244" stop-color="#B3DE71"/>
<stop offset="1" stop-color="#617C38"/>
</linearGradient>
<linearGradient id="paint5_linear_40_166" x1="717.151" y1="60.5" x2="697.189" y2="135" gradientUnits="userSpaceOnUse">
<stop stop-color="#B1E265"/>
<stop offset="0.44715" stop-color="#C4F27D"/>
<stop offset="0.745244" stop-color="#B3DE71"/>
<stop offset="1" stop-color="#617C38"/>
</linearGradient>
<linearGradient id="paint6_linear_40_166" x1="717.151" y1="60.5" x2="697.189" y2="135" gradientUnits="userSpaceOnUse">
<stop stop-color="#B1E265"/>
<stop offset="0.44715" stop-color="#C4F27D"/>
<stop offset="0.745244" stop-color="#B3DE71"/>
<stop offset="1" stop-color="#617C38"/>
</linearGradient>
</defs>
</svg>
